<svg xmlns="http://www.w3.org/2000/svg" viewBox="0 0 512 512" width="512" height="512">
  <rect width="512" height="512" rx="112" fill="#4c6b3e"/>
  <!-- minimal line open-book with a leaf bookmark -->
  <g fill="none" stroke="#f2efe6" stroke-width="18" stroke-linecap="round" stroke-linejoin="round">
    <!-- open book outline -->
    <path d="M256 190 C 214 166 156 164 112 174 L 112 356 C 156 346 214 348 256 372"/>
    <path d="M256 190 C 298 166 356 164 400 174 L 400 356 C 356 346 298 348 256 372"/>
    <path d="M256 190 L 256 372"/>
  </g>
  <!-- leaf bookmark rising from spine -->
  <path d="M256 186 C 256 150 234 126 202 120 C 200 156 224 184 256 186 Z" fill="#b8c69a"/>
  <path d="M214 132 C 228 148 244 168 253 184" stroke="#4c6b3e" stroke-width="8" stroke-linecap="round" fill="none"/>
</svg>
